<?xml version="1.0" encoding="utf-8"?>
<!-- Generator: Adobe Illustrator 27.5.0, SVG Export Plug-In . SVG Version: 6.00 Build 0)  -->
<svg version="1.1" xmlns="http://www.w3.org/2000/svg" xmlns:xlink="http://www.w3.org/1999/xlink" x="0px" y="0px"
	 viewBox="0 0 500 500" style="enable-background:new 0 0 500 500;" xml:space="preserve">
<g id="BACKGROUND">
	<rect style="fill:#FFFFFF;" width="500" height="500"/>
</g>
<g id="OBJECTS">
	<g>
		
			<ellipse transform="matrix(0.2261 -0.9741 0.9741 0.2261 -107.9986 366.6577)" style="fill:#EACB4E;" cx="176.755" cy="251.297" rx="74.465" ry="74.465"/>
		<path style="fill:#002560;" d="M179.829,320.502c-41.126,0-74.465-33.339-74.465-74.465c0-12.566,3.125-24.396,8.621-34.779
			c-7.392,11.565-11.695,25.296-11.695,40.039c0,41.126,33.339,74.465,74.465,74.465c28.561,0,53.353-16.087,65.845-39.687
			C229.372,306.77,206.211,320.502,179.829,320.502z"/>
		<polygon style="fill:#FFFFFF;" points="182.901,218.394 182.901,214.347 178.623,214.231 178.623,203.905 171.573,203.34 
			171.573,212.448 167.873,213.376 167.873,218.394 		"/>
		<path style="fill:#FFFFFF;" d="M122.534,220.142h102.577c0,0,6.425,1.233,10.809,9.663c4.384,8.43,26.945,66.077,12.663,73.824
			c-14.281,7.747-45.008-23.067-45.008-23.067s-3.93,2.403-10.975,2.06c-5.704-0.278-11.443-8.387-11.443-8.387l-12.846,1.039
			c0,0,0.156,8.076-10.464,7.817c-6.382-0.155-10.187-2.522-10.187-2.522s-31.957,26.583-46.652,24.244
			c-14.695-2.338-2.239-46.045,2.378-56.906C108.43,236.038,111.978,220.142,122.534,220.142z"/>
		
			<text transform="matrix(1 0 0 1 273.995 243.5045)" style="fill:#002560; font-family:'Montserrat-SemiBoldItalic'; font-size:9.644px; letter-spacing:2;">MESSAGE HERE</text>
		<g>
			<g>
				<path style="fill:#002560;" d="M250.028,292.388c-13.3,0-35.762-16.89-44.803-24.151c-0.43-0.346-0.499-0.975-0.153-1.405
					c0.346-0.431,0.975-0.498,1.406-0.153c6.924,5.562,30.529,23.71,43.55,23.71c0.646,0,1.589-0.207,2.332-2.001
					c0.62-1.501,0.935-3.729,0.935-6.623c0-19.866-14.77-63.298-25.884-63.298H126.102c-11.114,0-25.884,43.431-25.884,63.298
					c0,2.893,0.314,5.122,0.935,6.622c0.742,1.795,1.686,2.002,2.332,2.002c13.02,0,36.625-18.148,43.55-23.71
					c0.431-0.346,1.061-0.277,1.406,0.153c0.346,0.431,0.277,1.06-0.153,1.405c-9.041,7.262-31.502,24.151-44.803,24.151
					c-1.296,0-3.074-0.561-4.18-3.237c-0.721-1.744-1.087-4.229-1.087-7.387c0-19.463,14.585-65.298,27.884-65.298H227.41
					c13.299,0,27.884,45.836,27.884,65.298c0,3.157-0.365,5.643-1.087,7.387C253.102,291.827,251.325,292.388,250.028,292.388z"/>
			</g>
			<g>
				<path style="fill:#002560;" d="M103.484,301.953c-0.558,0-1.392-0.185-2.199-1.062c-2.988-3.247-3.596-14.17-3.065-20.528
					c0.046-0.551,0.53-0.977,1.079-0.913c0.55,0.046,0.96,0.529,0.914,1.079c-0.588,7.044,0.312,16.583,2.544,19.009
					c0.382,0.415,0.642,0.415,0.727,0.415c13.028,0,36.627-18.149,43.55-23.711c0.43-0.346,1.061-0.277,1.406,0.153
					c0.346,0.43,0.277,1.06-0.153,1.405C139.249,285.062,116.791,301.953,103.484,301.953z"/>
			</g>
			<g>
				<path style="fill:#002560;" d="M250.028,301.953c-13.307,0-35.765-16.891-44.803-24.152c-0.43-0.346-0.499-0.976-0.153-1.405
					c0.346-0.431,0.976-0.498,1.406-0.153c6.922,5.563,30.522,23.711,43.55,23.711c0.179,0,0.38-0.119,0.597-0.354
					c2.203-2.382,3.245-12.723,2.672-20.029c-0.043-0.551,0.368-1.032,0.919-1.075c0.543-0.039,1.032,0.368,1.075,0.919
					c0.548,6.989-0.259,18.365-3.198,21.543C251.333,301.78,250.55,301.953,250.028,301.953z"/>
			</g>
			<g>
				<path style="fill:#002560;" d="M158.61,280.946c-7.167,0-12.998-5.831-12.998-12.998c0-0.953,0.115-1.936,0.342-2.922
					c0.104-0.454,0.509-0.775,0.975-0.775l0,0c0.466,0,0.87,0.321,0.975,0.775c1.155,5.02,5.558,8.524,10.707,8.524
					c5.15,0,9.554-3.505,10.709-8.524c0.104-0.453,0.508-0.775,0.974-0.775c0.001,0,0.001,0,0.001,0c0.466,0,0.87,0.321,0.975,0.775
					c0.227,0.982,0.342,1.966,0.342,2.922C171.61,275.115,165.778,280.946,158.61,280.946z M147.753,269.709
					c0.846,5.23,5.393,9.236,10.857,9.236c5.465,0,10.013-4.007,10.858-9.236c-2.341,3.577-6.358,5.841-10.858,5.841
					C154.111,275.55,150.094,273.286,147.753,269.709z"/>
			</g>
			<g>
				<path style="fill:#002560;" d="M158.61,275.55c-6.087,0-11.291-4.144-12.657-10.075c-0.227-0.987-0.342-1.971-0.342-2.923
					c0-7.168,5.831-12.999,12.998-12.999c7.168,0,13,5.831,13,12.999c0,0.954-0.115,1.938-0.342,2.923
					C169.903,271.407,164.698,275.55,158.61,275.55z M158.61,251.552c-6.064,0-10.998,4.935-10.998,11
					c0,0.802,0.098,1.634,0.291,2.475c1.155,5.018,5.558,8.523,10.707,8.523c5.15,0,9.554-3.505,10.709-8.524
					c0.193-0.838,0.291-1.67,0.291-2.474C169.61,256.487,164.675,251.552,158.61,251.552z"/>
			</g>
			<g>
				<path style="fill:#002560;" d="M194.9,280.946c-7.167,0-12.998-5.831-12.998-12.998c0-0.956,0.115-1.94,0.342-2.922
					c0.105-0.454,0.509-0.775,0.975-0.775h0.001c0.466,0,0.87,0.322,0.974,0.775c1.154,5.02,5.557,8.524,10.707,8.524
					c5.15,0,9.554-3.505,10.708-8.524c0.104-0.453,0.508-0.775,0.974-0.775c0,0,0,0,0,0c0.466,0,0.87,0.321,0.975,0.775
					c0.227,0.982,0.342,1.966,0.342,2.922C207.899,275.115,202.067,280.946,194.9,280.946z M184.043,269.71
					c0.846,5.229,5.392,9.235,10.857,9.235c5.465,0,10.013-4.007,10.858-9.236c-2.341,3.577-6.358,5.841-10.858,5.841
					C190.4,275.55,186.383,273.286,184.043,269.71z"/>
			</g>
			<g>
				<path style="fill:#002560;" d="M194.9,275.55c-6.088,0-11.292-4.144-12.656-10.075c-0.227-0.985-0.342-1.969-0.342-2.923
					c0-7.168,5.831-12.999,12.998-12.999c7.168,0,12.999,5.831,12.999,12.999c0,0.954-0.115,1.938-0.342,2.923
					C206.192,271.407,200.987,275.55,194.9,275.55z M194.9,251.552c-6.064,0-10.998,4.935-10.998,11
					c0,0.804,0.098,1.636,0.291,2.474c1.154,5.02,5.557,8.524,10.707,8.524c5.15,0,9.554-3.505,10.708-8.524
					c0.193-0.838,0.291-1.67,0.291-2.474C205.899,256.487,200.964,251.552,194.9,251.552z"/>
			</g>
			<g>
				<path style="fill:#002560;" d="M182.901,263.552H170.61c-0.552,0-1-0.447-1-1c0-0.553,0.448-1,1-1h12.291c0.552,0,1,0.447,1,1
					C183.901,263.105,183.454,263.552,182.901,263.552z"/>
			</g>
			<g>
				<path style="fill:#002560;" d="M182.901,271.023H170.61c-0.552,0-1-0.447-1-1c0-0.553,0.448-1,1-1h12.291c0.552,0,1,0.447,1,1
					C183.901,270.576,183.454,271.023,182.901,271.023z"/>
			</g>
			<g>
				<path style="fill:#002560;" d="M138.483,250.577h-8.875c-0.552,0-1-0.448-1-1v-4.984h-4.984c-0.552,0-1-0.448-1-1v-8.875
					c0-0.552,0.448-1,1-1h4.984v-4.983c0-0.552,0.448-1,1-1h8.875c0.552,0,1,0.448,1,1v4.983h4.983c0.552,0,1,0.448,1,1v8.875
					c0,0.552-0.448,1-1,1h-4.983v4.984C139.483,250.129,139.035,250.577,138.483,250.577z M130.608,248.577h6.875v-4.984
					c0-0.552,0.448-1,1-1h4.983v-6.875h-4.983c-0.552,0-1-0.448-1-1v-4.983h-6.875v4.983c0,0.552-0.448,1-1,1h-4.984v6.875h4.984
					c0.552,0,1,0.448,1,1V248.577z"/>
			</g>
			<g>
				<g>
					<path style="fill:#EACB4E;" d="M215.692,233.542c0-1.873,1.518-3.39,3.39-3.39c1.872,0,3.39,1.517,3.39,3.39
						c0,1.872-1.518,3.389-3.39,3.389C217.21,236.93,215.692,235.414,215.692,233.542z"/>
					<path style="fill:#EACB4E;" d="M215.692,249.655c0-1.872,1.518-3.39,3.39-3.39c1.872,0,3.39,1.518,3.39,3.39
						c0,1.872-1.518,3.39-3.39,3.39C217.21,253.045,215.692,251.527,215.692,249.655z"/>
				</g>
				<g>
					<path style="fill:#EACB4E;" d="M206.899,241.598c0-1.872,1.518-3.39,3.39-3.39c1.872,0,3.39,1.518,3.39,3.39
						c0,1.872-1.518,3.39-3.39,3.39C208.417,244.988,206.899,243.469,206.899,241.598z"/>
					<path style="fill:#EACB4E;" d="M224.487,241.598c0-1.872,1.517-3.39,3.389-3.39c1.873,0,3.39,1.518,3.39,3.39
						c0,1.872-1.517,3.39-3.39,3.39C226.004,244.988,224.487,243.469,224.487,241.598z"/>
				</g>
			</g>
			<g>
				<path style="fill:#002560;" d="M184.269,218.466h-15.028c-0.552,0-1-0.448-1-1v-5.018c0-0.552,0.448-1,1-1h15.028
					c0.552,0,1,0.448,1,1v5.018C185.269,218.018,184.821,218.466,184.269,218.466z M170.241,216.466h13.028v-3.018h-13.028V216.466z
					"/>
			</g>
			<g>
				<path style="fill:#002560;" d="M181.937,213.448h-10.364c-0.552,0-1-0.448-1-1v-5.017c0-0.552,0.448-1,1-1h10.364
					c0.552,0,1,0.448,1,1v5.017C182.937,213,182.489,213.448,181.937,213.448z M172.573,211.448h8.364v-3.017h-8.364V211.448z"/>
			</g>
			<g>
				<path style="fill:#002560;" d="M181.937,208.43h-10.364c-0.552,0-1-0.448-1-1v-5.019c0-0.552,0.448-1,1-1h10.364
					c0.552,0,1,0.448,1,1v5.019C182.937,207.983,182.489,208.43,181.937,208.43z M172.573,206.43h8.364v-3.019h-8.364V206.43z"/>
			</g>
			<g>
				<path style="fill:#002560;" d="M176.755,203.412c-0.552,0-1-0.448-1-1v-18.455c0-3.726,3.031-6.757,6.757-6.757
					c3.727,0,6.758,3.025,6.758,6.743c0,2.616,2.134,4.745,4.757,4.745c0.552,0,1,0.448,1,1c0,0.552-0.448,1-1,1
					c-3.726,0-6.757-3.025-6.757-6.745c0-2.615-2.135-4.743-4.758-4.743c-2.623,0-4.757,2.134-4.757,4.757v18.455
					C177.755,202.964,177.308,203.412,176.755,203.412z"/>
			</g>
			<g>
				<g>
					<g>
						<path style="fill:#002560;" d="M220.065,236.183c-2.42,0-4.39-1.969-4.39-4.389c0-2.421,1.969-4.39,4.39-4.39
							c2.421,0,4.39,1.969,4.39,4.39C224.455,234.215,222.486,236.183,220.065,236.183z M220.065,229.405
							c-1.318,0-2.39,1.072-2.39,2.39c0,1.317,1.072,2.389,2.39,2.389c1.318,0,2.39-1.072,2.39-2.389
							C222.455,230.476,221.383,229.405,220.065,229.405z"/>
					</g>
					<g>
						<path style="fill:#002560;" d="M220.065,252.297c-2.42,0-4.39-1.969-4.39-4.39c0-2.421,1.969-4.39,4.39-4.39
							c2.421,0,4.39,1.969,4.39,4.39C224.455,250.328,222.486,252.297,220.065,252.297z M220.065,245.517
							c-1.318,0-2.39,1.072-2.39,2.39c0,1.318,1.072,2.39,2.39,2.39c1.318,0,2.39-1.072,2.39-2.39
							C222.455,246.59,221.383,245.517,220.065,245.517z"/>
					</g>
				</g>
				<g>
					<g>
						<path style="fill:#002560;" d="M211.272,244.24c-2.421,0-4.39-1.969-4.39-4.39c0-2.421,1.969-4.39,4.39-4.39
							c2.42,0,4.39,1.969,4.39,4.39C215.662,242.271,213.692,244.24,211.272,244.24z M211.272,237.46c-1.318,0-2.39,1.072-2.39,2.39
							s1.072,2.39,2.39,2.39s2.39-1.072,2.39-2.39S212.59,237.46,211.272,237.46z"/>
					</g>
					<g>
						<path style="fill:#002560;" d="M228.858,244.24c-2.42,0-4.389-1.969-4.389-4.39c0-2.421,1.969-4.39,4.389-4.39
							c2.421,0,4.39,1.969,4.39,4.39C233.249,242.271,231.279,244.24,228.858,244.24z M228.858,237.46
							c-1.317,0-2.389,1.072-2.389,2.39s1.072,2.39,2.389,2.39c1.318,0,2.39-1.072,2.39-2.39S230.176,237.46,228.858,237.46z"/>
					</g>
				</g>
			</g>
		</g>
		
			<text transform="matrix(0.9954 0.0095 -0.1048 0.9945 178.359 211.3509)" style="fill:#002560; font-family:'Commando'; font-size:44.0411px; letter-spacing:1.005;">GAME ZONE</text>
		<g>
			<path style="fill:#002560;" d="M395.47,221.142H271.005c-0.553,0-1-0.448-1-1c0-0.552,0.447-1,1-1H395.47c0.553,0,1,0.448,1,1
				C396.47,220.694,396.023,221.142,395.47,221.142z"/>
		</g>
		<g>
			<path style="fill:#002560;" d="M389.626,229.405h-54.135c-0.553,0-1-0.448-1-1c0-0.552,0.447-1,1-1h54.135c0.553,0,1,0.448,1,1
				C390.626,228.957,390.178,229.405,389.626,229.405z"/>
		</g>
		<g>
			<g>
				<g>
					<path style="fill:#002560;" d="M194.9,305.301c-0.444,0-0.804-0.36-0.804-0.804v-7.089c0-0.444,0.36-0.804,0.804-0.804
						s0.804,0.36,0.804,0.804v7.089C195.704,304.941,195.344,305.301,194.9,305.301z"/>
				</g>
				<g>
					<path style="fill:#002560;" d="M198.444,301.757h-7.089c-0.444,0-0.804-0.36-0.804-0.804c0-0.444,0.36-0.804,0.804-0.804h7.089
						c0.444,0,0.804,0.36,0.804,0.804C199.248,301.397,198.888,301.757,198.444,301.757z"/>
				</g>
			</g>
		</g>
		<g>
			<g>
				<g>
					<path style="fill:#002560;" d="M158.611,183.627c-0.444,0-0.804-0.36-0.804-0.804v-7.089c0-0.444,0.36-0.804,0.804-0.804
						s0.804,0.36,0.804,0.804v7.089C159.415,183.267,159.055,183.627,158.611,183.627z"/>
				</g>
				<g>
					<path style="fill:#002560;" d="M162.155,180.082h-7.089c-0.444,0-0.804-0.36-0.804-0.804c0-0.444,0.36-0.804,0.804-0.804h7.089
						c0.444,0,0.804,0.36,0.804,0.804C162.959,179.722,162.599,180.082,162.155,180.082z"/>
				</g>
			</g>
		</g>
		<path style="fill:#EACB4E;" d="M140.387,237.074l-3.747,0.008c-0.293,0.001-0.531-0.236-0.532-0.529l-0.008-3.747
			c-0.001-0.293-0.239-0.53-0.532-0.529l-3.078,0.006c-0.293,0.001-0.53,0.239-0.529,0.532l0.008,3.747
			c0.001,0.293-0.236,0.531-0.529,0.532l-3.747,0.008c-0.293,0.001-0.53,0.239-0.529,0.532l0.006,3.078
			c0.001,0.293,0.239,0.53,0.531,0.529l3.747-0.008c0.293-0.001,0.531,0.236,0.532,0.529l0.008,3.747
			c0.001,0.293,0.239,0.53,0.531,0.529l3.078-0.006c0.293-0.001,0.53-0.238,0.529-0.531l-0.008-3.747
			c-0.001-0.293,0.236-0.531,0.529-0.532l3.747-0.008c0.293-0.001,0.53-0.239,0.529-0.532l-0.006-3.078
			C140.918,237.31,140.68,237.073,140.387,237.074z"/>
		<g>
			<path style="fill:#002560;" d="M260.095,245.308c-0.173,0-0.346-0.044-0.5-0.134c-0.31-0.179-0.5-0.509-0.5-0.866v-8.915
				c0-0.357,0.19-0.688,0.5-0.866c0.309-0.179,0.691-0.179,1,0l7.721,4.458c0.309,0.179,0.5,0.509,0.5,0.866
				c0,0.357-0.191,0.688-0.5,0.866l-7.721,4.458C260.441,245.264,260.268,245.308,260.095,245.308z M261.095,237.125v5.451
				l4.721-2.726L261.095,237.125z"/>
		</g>
		<g>
			<path style="fill:#002560;" d="M136.577,206.228c-2.105,0-3.816-1.712-3.816-3.816c0-2.104,1.712-3.816,3.816-3.816
				c2.104,0,3.816,1.712,3.816,3.816C140.394,204.516,138.682,206.228,136.577,206.228z M136.577,200.596
				c-1.002,0-1.816,0.815-1.816,1.816c0,1.002,0.815,1.816,1.816,1.816c1.001,0,1.816-0.815,1.816-1.816
				C138.394,201.411,137.579,200.596,136.577,200.596z"/>
		</g>
	</g>
</g>
</svg>
